<?xml version="1.0" standalone="no"?><!DOCTYPE svg PUBLIC "-//W3C//DTD SVG 1.1//EN" "http://www.w3.org/Graphics/SVG/1.1/DTD/svg11.dtd"><svg t="1695200901853" class="icon" viewBox="0 0 1024 1024" version="1.1" xmlns="http://www.w3.org/2000/svg" p-id="7211" xmlns:xlink="http://www.w3.org/1999/xlink" width="200" height="200"><path d="M234.208 596.168a21.304 21.304 0 0 1 21.296 21.296v170.328a21.296 21.296 0 0 1-42.584 0V723.92H127.752v63.872a21.304 21.304 0 0 1-42.584 0V617.464a21.304 21.304 0 0 1 42.584 0v63.872h85.168v-63.872a21.304 21.304 0 0 1 21.288-21.296z m170.336 0a21.296 21.296 0 0 1 0 42.584h-21.296v149.04a21.304 21.304 0 0 1-42.576 0v-149.04h-21.296a21.304 21.304 0 0 1 0-42.584h85.168z m170.336 0a21.304 21.304 0 0 1 0 42.584h-21.296v149.04a21.304 21.304 0 0 1-42.584 0v-149.04h-21.288a21.304 21.304 0 0 1 0-42.584H574.88z m127.744 0c35.224 0 63.88 28.656 63.88 63.88 0 35.216-28.656 63.872-63.88 63.872h-21.28v63.872a21.304 21.304 0 0 1-42.592 0V617.464a21.304 21.304 0 0 1 21.296-21.296h42.576z m0 85.168a21.328 21.328 0 0 0 21.296-21.288 21.328 21.328 0 0 0-21.296-21.296h-21.288v42.584h21.288z m303.24-84.528a21.248 21.248 0 0 1 15.504 25.808l-42.584 170.328a21.216 21.216 0 0 1-25.808 15.504 21.248 21.248 0 0 1-15.496-25.808l42.576-170.328a21.168 21.168 0 0 1 25.808-15.504z m-85.168 0a21.24 21.24 0 0 1 15.504 25.808l-42.584 170.328a21.216 21.216 0 0 1-25.808 15.504 21.248 21.248 0 0 1-15.496-25.808l42.584-170.328a21.144 21.144 0 0 1 25.8-15.504z m-90.32 84.528a21.296 21.296 0 1 1 0-42.584 21.296 21.296 0 0 1 0 42.584z m0 85.168a21.296 21.296 0 1 1 0-42.584 21.296 21.296 0 0 1 0 42.584zM745.208 553.584a21.304 21.304 0 0 1-21.288-21.288V42.584H298.08v234.208A21.304 21.304 0 0 1 276.8 298.08H42.584v681.344H723.92V872.96a21.304 21.304 0 0 1 42.584 0v127.76a21.304 21.304 0 0 1-21.288 21.28H21.296A21.304 21.304 0 0 1 0 1000.72V276.8c0-2.856 0.6-5.624 1.664-8.224 0.504-1.28 1.488-2.256 2.256-3.408 0.768-1.152 1.32-2.472 2.296-3.448L261.72 6.216c1.024-1.024 2.384-1.616 3.576-2.384 1.104-0.72 2.04-1.664 3.28-2.168 2.6-1.064 5.36-1.664 8.216-1.664h468.416a21.304 21.304 0 0 1 21.296 21.296v511a21.304 21.304 0 0 1-21.296 21.288z m-489.704-298.08V72.688L72.688 255.504h182.816z" fill="#ffffff" p-id="7212"></path></svg>