<?xml version="1.0" standalone="no"?><!DOCTYPE svg PUBLIC "-//W3C//DTD SVG 1.1//EN" "http://www.w3.org/Graphics/SVG/1.1/DTD/svg11.dtd"><svg t="1695200721051" class="icon" viewBox="0 0 1024 1024" version="1.1" xmlns="http://www.w3.org/2000/svg" p-id="3798" xmlns:xlink="http://www.w3.org/1999/xlink" width="200" height="200"><path d="M950.849536 841.146368c0 80.803157-28.900011 109.703168-109.703168 109.703168H182.84544c-80.794965 0-109.694976-28.900011-109.694976-109.703168V182.84544c0-80.794965 28.900011-109.694976 109.694976-109.694976h658.300928c80.803157 0 109.703168 28.900011 109.703168 109.694976v658.300928zM877.760512 0H146.239488C65.469099 0.015019 0 65.497771 0 146.270891V877.759147C0.015019 958.534997 65.497771 1024 146.270891 1024H877.759147C958.532267 1023.976789 1024 958.494037 1024 877.729109V146.239488C1023.976789 65.469099 958.494037 0 877.729109 0h0.031403z m0 0" p-id="3799" fill="#ffffff"></path><path d="M182.84544 292.580011h219.428181c20.196011 0 36.573184 16.371712 36.573184 36.574549 0 20.194645-16.377173 36.574549-36.573184 36.574549H182.84544c-20.196011 0-36.574549-16.379904-36.574549-36.574549 0-20.202837 16.378539-36.574549 36.574549-36.574549" p-id="3800" fill="#ffffff"></path><path d="M240.798379 627.997355l155.204266 155.204266c14.297771 14.297771 14.297771 37.475669 0 51.77344-14.296405 14.297771-37.483861 14.297771-51.780266 0L189.156011 679.647915a36.585472 36.585472 0 0 1-10.72879-25.88399 36.59776 36.59776 0 0 1 10.72879-25.897642c14.311424-14.174891 37.399211-14.120277 51.642368 0.131072m380.926634 139.998549h219.421355c20.202837 0 36.582741 16.382635 36.582741 36.575915 0 20.201472-16.379904 36.574549-36.582741 36.574549H621.725013c-20.202837 0-36.574549-16.373077-36.574549-36.574549 0-20.19328 16.371712-36.575915 36.574549-36.575915m0-146.270891h219.421355a36.549973 36.549973 0 0 1 31.660715 18.283179 36.555435 36.555435 0 0 1-31.660715 54.837248H621.725013a36.555435 36.555435 0 1 1-31.660714-54.837248 36.549973 36.549973 0 0 1 31.660714-18.283179m0-329.145002h219.421355c20.202837 0 36.582741 16.371712 36.582741 36.574549 0 20.194645-16.379904 36.574549-36.582741 36.574549H621.725013c-20.202837 0-36.574549-16.379904-36.574549-36.574549 0-20.202837 16.371712-36.574549 36.574549-36.574549M292.580011 182.84544c20.216491 0 36.574549 16.358059 36.574549 36.57728v219.425451c0 20.196011-16.378539 36.57728-36.574549 36.57728-20.202837 0-36.584107-16.381269-36.584107-36.57728V219.421355c0-20.217856 16.328021-36.575915 36.584107-36.575915" p-id="3801" fill="#ffffff"></path><path d="M396.002645 627.997355c14.273195 14.305963 14.273195 37.474304 0 51.780266L240.798379 834.845355c-14.449323 13.350229-36.858539 12.901035-50.765824-1.007616-13.908651-13.908651-14.359211-36.316501-1.007616-50.764459l155.19744-155.206997c14.357845-14.188544 37.483861-14.128469 51.780266 0.131072" p-id="3802" fill="#ffffff"></path></svg>